<?xml version="1.0" encoding="utf-8"?>
<!-- Generator: Adobe Illustrator 23.1.0, SVG Export Plug-In . SVG Version: 6.00 Build 0)  -->
<svg version="1.1" id="Layer_1" xmlns="http://www.w3.org/2000/svg" xmlns:xlink="http://www.w3.org/1999/xlink" x="0px" y="0px"
	 viewBox="0 0 71.8 20.4" style="enable-background:new 0 0 71.8 20.4;" xml:space="preserve">
<style type="text/css">
	.st0{fill:none;stroke:#5C061F;stroke-width:1.5004;stroke-miterlimit:10;}
	.st1{fill:#5C061F;}
</style>
<title>Asset 2</title>
<g>
	<g id="Caption">
		<polyline class="st0" points="52.826,17.5 71.0352,17.5 71.0352,0.8 0.8,0.8 0.8,17.5 18.6089,17.5 		"/>
	</g>
</g>
<g>
	<path class="st1" d="M26.2793,18.2969c0,0.2852-0.1035,0.5098-0.3096,0.6719c-0.207,0.1631-0.4917,0.2441-0.855,0.2441
		s-0.6606-0.0566-0.8921-0.1689v-0.4971c0.1465,0.0693,0.3022,0.123,0.4668,0.1631c0.165,0.0391,0.3184,0.0586,0.4604,0.0586
		c0.208,0,0.3613-0.0391,0.4604-0.1182c0.0986-0.0791,0.1484-0.1855,0.1484-0.3184c0-0.1201-0.0459-0.2217-0.1367-0.3057
		s-0.2783-0.1826-0.5625-0.2969c-0.293-0.1182-0.4995-0.2539-0.6191-0.4063c-0.1206-0.1523-0.1807-0.335-0.1807-0.5488
		c0-0.2686,0.0952-0.4795,0.2861-0.6328c0.1899-0.1543,0.4458-0.2314,0.7666-0.2314c0.3076,0,0.6133,0.0674,0.9189,0.2021
		l-0.168,0.4287c-0.2852-0.1201-0.54-0.1807-0.7642-0.1807c-0.1699,0-0.2988,0.0371-0.3867,0.1113s-0.1318,0.1719-0.1318,0.293
		c0,0.084,0.0176,0.1553,0.0527,0.2148s0.0928,0.1152,0.1733,0.168s0.2256,0.1221,0.4355,0.209
		c0.2354,0.0977,0.4082,0.1895,0.5186,0.2744c0.1094,0.085,0.1904,0.1807,0.2412,0.2881
		C26.2539,18.0254,26.2793,18.1514,26.2793,18.2969z"/>
	<path class="st1" d="M28.0781,19.2129c-0.3076,0-0.5459-0.1104-0.7158-0.332h-0.0313c0.0205,0.2051,0.0313,0.3301,0.0313,0.374
		V20.25h-0.5166v-3.5107h0.418c0.0107,0.0449,0.0352,0.1533,0.0723,0.3242h0.0264c0.1611-0.2461,0.4023-0.3691,0.7246-0.3691
		c0.3037,0,0.54,0.1104,0.709,0.3301s0.2539,0.5283,0.2539,0.9248c0,0.3975-0.0859,0.707-0.2588,0.9297
		C28.6191,19.1016,28.3818,19.2129,28.0781,19.2129z M27.9531,17.1162c-0.2051,0-0.3545,0.0605-0.4492,0.1807
		s-0.1416,0.3115-0.1416,0.5752v0.0771c0,0.2959,0.0469,0.5107,0.1406,0.6426c0.0938,0.1328,0.2461,0.1992,0.459,0.1992
		c0.1787,0,0.3164-0.0732,0.4131-0.2197s0.1445-0.3555,0.1445-0.626c0-0.2725-0.0479-0.4785-0.1436-0.6191
		C28.2803,17.1865,28.1387,17.1162,27.9531,17.1162z"/>
	<path class="st1" d="M31.1709,19.1689l-0.1035-0.3379h-0.0176c-0.1172,0.1475-0.2354,0.248-0.3535,0.3018
		s-0.2715,0.0801-0.457,0.0801c-0.2393,0-0.4248-0.0645-0.5596-0.1934c-0.1338-0.1289-0.2012-0.3115-0.2012-0.5469
		c0-0.251,0.0938-0.4395,0.2793-0.5674c0.1865-0.127,0.4697-0.1963,0.8506-0.209l0.4199-0.0127v-0.1299
		c0-0.1553-0.0361-0.2715-0.1094-0.3477c-0.0723-0.0771-0.1846-0.1152-0.3369-0.1152c-0.125,0-0.2441,0.0176-0.3584,0.0547
		c-0.1143,0.0361-0.2236,0.0801-0.3291,0.1289l-0.167-0.3691c0.1318-0.0684,0.2754-0.1211,0.4326-0.1563
		c0.1563-0.0361,0.3047-0.0547,0.4434-0.0547c0.3096,0,0.543,0.0684,0.7002,0.2031s0.2363,0.3457,0.2363,0.6348v1.6367H31.1709z
		 M30.4023,18.8174c0.1865,0,0.3379-0.0527,0.4512-0.1572s0.1699-0.251,0.1699-0.4404v-0.2109l-0.3115,0.0137
		c-0.2432,0.0078-0.4199,0.0488-0.5313,0.1211c-0.1104,0.0732-0.165,0.1836-0.165,0.333c0,0.1084,0.0313,0.1924,0.0957,0.252
		S30.2725,18.8174,30.4023,18.8174z"/>
	<path class="st1" d="M33.2402,19.2129c-0.3682,0-0.6475-0.1074-0.8389-0.3223c-0.1914-0.2139-0.2861-0.5225-0.2861-0.9238
		c0-0.4082,0.0996-0.7227,0.2998-0.9424c0.1992-0.2197,0.4883-0.3301,0.8662-0.3301c0.2568,0,0.4873,0.0479,0.6924,0.1436
		l-0.1563,0.415c-0.2178-0.085-0.3984-0.127-0.54-0.127c-0.4209,0-0.6309,0.2783-0.6309,0.8369
		c0,0.2725,0.0527,0.4766,0.1572,0.6143c0.1045,0.1367,0.2578,0.2051,0.46,0.2051c0.2305,0,0.4473-0.0566,0.6523-0.1719v0.4512
		c-0.0918,0.0537-0.1904,0.0928-0.2949,0.1162S33.3887,19.2129,33.2402,19.2129z"/>
	<path class="st1" d="M35.5498,19.2129c-0.3779,0-0.6738-0.1104-0.8867-0.3311c-0.2129-0.2197-0.3193-0.5234-0.3193-0.9102
		c0-0.3975,0.0986-0.709,0.2959-0.9365c0.1982-0.2266,0.4697-0.3408,0.8154-0.3408c0.3203,0,0.5742,0.0977,0.7598,0.293
		c0.1865,0.1943,0.2793,0.4629,0.2793,0.8037v0.2793H34.875c0.0068,0.2363,0.0713,0.417,0.1914,0.5439s0.2891,0.1895,0.5078,0.1895
		c0.1426,0,0.2764-0.0127,0.4004-0.04s0.2568-0.0723,0.3984-0.1357v0.4199c-0.126,0.0605-0.2529,0.1025-0.3818,0.1279
		C35.8623,19.2002,35.7148,19.2129,35.5498,19.2129z M35.4551,17.0859c-0.1641,0-0.2959,0.0518-0.3945,0.1563
		c-0.0986,0.1035-0.1582,0.2559-0.1768,0.4541h1.1025c-0.0029-0.2002-0.0508-0.3525-0.1445-0.4551
		C35.748,17.1377,35.6191,17.0859,35.4551,17.0859z"/>
	<path class="st1" d="M39.5029,19.1689h-0.6045l-0.8047-1.3145l-0.8105,1.3145h-0.5625l1.0654-1.666l-0.9971-1.5469h0.584
		l0.7432,1.2158l0.7422-1.2158h0.5674l-1.0049,1.5566L39.5029,19.1689z"/>
	<path class="st1" d="M43.0967,19.1689l-0.3213-0.8926h-1.2275l-0.3145,0.8926h-0.5537l1.2021-3.2256h0.5713l1.2012,3.2256H43.0967z
		 M42.6377,17.8242l-0.3018-0.874c-0.0215-0.0586-0.0518-0.1514-0.0908-0.2773s-0.0654-0.2178-0.0801-0.2773
		c-0.04,0.1807-0.0977,0.3779-0.1738,0.5918l-0.29,0.8369H42.6377z"/>
	<path class="st1" d="M46.2061,16.9277c0,0.3359-0.1094,0.5928-0.3291,0.7715s-0.5332,0.2676-0.9385,0.2676h-0.334v1.2021h-0.5254
		v-3.2129h0.9258c0.4004,0,0.7012,0.083,0.9014,0.2461C46.1064,16.3672,46.2061,16.6084,46.2061,16.9277z M44.6045,17.5254h0.2793
		c0.2695,0,0.4668-0.0469,0.5928-0.1406s0.1895-0.2402,0.1895-0.4395c0-0.1846-0.0566-0.3223-0.1689-0.4131
		c-0.1133-0.0908-0.2891-0.1367-0.5273-0.1367h-0.3652V17.5254z"/>
	<path class="st1" d="M46.8477,19.1689v-3.2129h0.5254v3.2129H46.8477z"/>
</g>
<g>
	<path class="st1" d="M14.6953,8.6284c0,1.6499-0.459,2.9116-1.375,3.7837c-0.916,0.873-2.2344,1.3096-3.957,1.3096H6.5664V3.7271
		h3.0898c1.5918,0,2.8281,0.4282,3.7129,1.2852C14.252,5.8691,14.6953,7.0742,14.6953,8.6284z M12.9727,8.6831
		c0-2.3926-1.1191-3.5889-3.3574-3.5889H8.2012v7.2534h1.1621C11.7695,12.3477,12.9727,11.126,12.9727,8.6831z"/>
	<path class="st1" d="M16.5586,13.7217v-7.853h1.2832v7.853H16.5586z"/>
	<path class="st1" d="M26.457,13.7217h-1.5732l-3.8623-6.2578h-0.043l0.0273,0.3491c0.0498,0.666,0.0752,1.2749,0.0752,1.8262
		v4.0825h-1.165v-7.853h1.5566l3.8516,6.2251h0.0322c-0.0068-0.082-0.0215-0.3818-0.043-0.8994s-0.0322-0.9214-0.0322-1.2114V5.8687
		h1.1758V13.7217z"/>
	<path class="st1" d="M34.7236,13.7217h-1.2891v-3.54h-3.6201v3.54h-1.2832v-7.853h1.2832v3.2119h3.6201V5.8687h1.2891V13.7217z"/>
	<path class="st1" d="M40.5264,13.7217h-1.6338V5.1284h-2.9395V3.7271h7.5127v1.4014h-2.9395V13.7217z"/>
	<path class="st1" d="M45.998,10.5845v3.1372h-1.2832v-7.853h2.2178c1.0137,0,1.7637,0.1899,2.251,0.5693
		c0.4863,0.3794,0.7305,0.9526,0.7305,1.7188c0,0.9775-0.5088,1.6738-1.5254,2.0894l2.2178,3.4756h-1.4609l-1.8799-3.1372H45.998z
		 M45.998,9.521h0.8916c0.5977,0,1.0313-0.1108,1.2998-0.333s0.4023-0.5513,0.4023-0.9883c0-0.4438-0.1445-0.7627-0.4346-0.9561
		s-0.7266-0.29-1.3105-0.29H45.998V9.521z"/>
	<path class="st1" d="M56.6172,13.7217L55.833,11.541h-3.0029l-0.7676,2.1807H50.709l2.9375-7.8853h1.3965l2.9385,7.8853H56.6172z
		 M55.4941,10.4341l-0.7354-2.1377c-0.0537-0.1431-0.1279-0.3687-0.2227-0.6768s-0.1602-0.5337-0.1963-0.6768
		c-0.0967,0.4404-0.2383,0.9219-0.4238,1.4448l-0.709,2.0464H55.4941z"/>
	<path class="st1" d="M65.5596,13.7217h-1.5732L60.124,7.4639h-0.043l0.0273,0.3491c0.0498,0.666,0.0752,1.2749,0.0752,1.8262
		v4.0825h-1.165v-7.853h1.5566l3.8516,6.2251h0.0322c-0.0068-0.082-0.0215-0.3818-0.043-0.8994s-0.0322-0.9214-0.0322-1.2114V5.8687
		h1.1758V13.7217z"/>
</g>
</svg>
